<svg width="852" height="40" viewBox="0 0 852 40" fill="none" xmlns="http://www.w3.org/2000/svg">
<rect width="852" height="40" fill="#670035"/>
<path d="M407.779 26.922L404.611 27.066L404.791 24.78V15.222L404.611 12.882L407.131 13.062H411.181L413.647 12.882L413.521 15.51L411.091 15.33H407.599V18.696H410.353L412.819 18.516L412.693 21.144L410.263 20.964H407.599V24.69L407.779 26.922ZM416.877 24.708L420.549 15.186L421.089 13.062H423.609L424.149 15.186L427.821 24.708L428.793 26.94H425.427L424.887 24.87L424.275 23.25H420.315L419.685 24.816L419.145 26.94H415.905L416.877 24.708ZM423.501 20.982L422.313 17.688L421.125 20.982H423.501ZM431.854 26.922L432.034 24.69V15.312L431.854 13.08L435.04 12.954L434.86 15.222V24.78L435.04 27.048L431.854 26.922ZM439.722 24.78V15.222L439.542 12.954L442.728 13.08L442.548 15.312V24.69H446.184L448.65 24.51L448.524 27.12L446.094 26.94H442.062L439.542 27.12L439.722 24.78Z" fill="white"/>
</svg>
