<svg width="852" height="40" viewBox="0 0 852 40" fill="none" xmlns="http://www.w3.org/2000/svg">
<rect width="852" height="40" fill="#191919"/>
<path d="M407.779 26.922L404.611 27.066L404.791 24.78V15.222L404.611 12.882L407.131 13.062H411.181L413.647 12.882L413.521 15.51L411.091 15.33H407.599V18.696H410.353L412.819 18.516L412.693 21.144L410.263 20.964H407.599V24.69L407.779 26.922ZM416.877 24.708L420.549 15.186L421.089 13.062H423.609L424.149 15.186L427.821 24.708L428.793 26.94H425.427L424.887 24.87L424.275 23.25H420.315L419.685 24.816L419.145 26.94H415.905L416.877 24.708ZM423.501 20.982L422.313 17.688L421.125 20.982H423.501ZM431.854 26.922L432.034 24.69V15.312L431.854 13.08L435.04 12.954L434.86 15.222V24.78L435.04 27.048L431.854 26.922ZM439.722 24.78V15.222L439.542 12.954L442.728 13.08L442.548 15.312V24.69H446.184L448.65 24.51L448.524 27.12L446.094 26.94H442.062L439.542 27.12L439.722 24.78Z" fill="#191919"/>
<path d="M401.757 24.96V15.042L401.667 13.152L403.593 13.242L403.503 15.132V25.23H408.417L410.307 25.14L410.217 26.85L408.327 26.76H403.539L401.667 26.85L401.757 24.96ZM419.083 27.066C414.997 27.066 412.909 23.7 412.909 19.992C412.909 16.338 414.961 12.918 419.083 12.918C423.205 12.918 425.257 16.338 425.257 19.992C425.257 23.7 423.169 27.066 419.083 27.066ZM419.083 25.536C422.179 25.536 423.511 22.764 423.511 19.992C423.511 17.238 422.179 14.466 419.083 14.466C415.987 14.466 414.655 17.238 414.655 19.992C414.655 22.764 415.987 25.536 419.083 25.536ZM431.712 24.96L428.382 14.862L427.68 13.242H429.732L430.236 14.952L433.314 24.942L436.428 14.952L436.932 13.242H438.93L438.228 14.862L434.862 24.96L434.358 26.76H432.216L431.712 24.96ZM442.084 24.96V15.042L441.994 13.152L443.866 13.242H449.104L450.994 13.152L450.904 14.88L449.014 14.79H443.83V19.056H448.618L450.508 18.966L450.418 20.694L448.528 20.604H443.83V25.212H449.158L451.048 25.122L450.958 26.85L449.068 26.76H443.866L441.994 26.85L442.084 24.96Z" fill="#DF0073"/>
</svg>
