<svg width="852" height="50" viewBox="0 0 852 50" fill="none" xmlns="http://www.w3.org/2000/svg">
<rect width="852" height="50" fill="#191919"/>
<path d="M399.063 30.4V19.38L398.963 17.28L401.103 17.38L401.003 19.48V30.7H406.463L408.563 30.6L408.463 32.5L406.363 32.4H401.043L398.963 32.5L399.063 30.4ZM418.314 32.74C413.774 32.74 411.454 29 411.454 24.88C411.454 20.82 413.734 17.02 418.314 17.02C422.894 17.02 425.174 20.82 425.174 24.88C425.174 29 422.854 32.74 418.314 32.74ZM418.314 31.04C421.754 31.04 423.234 27.96 423.234 24.88C423.234 21.82 421.754 18.74 418.314 18.74C414.874 18.74 413.394 21.82 413.394 24.88C413.394 27.96 414.874 31.04 418.314 31.04ZM432.347 30.4L428.647 19.18L427.867 17.38H430.147L430.707 19.28L434.127 30.38L437.587 19.28L438.147 17.38H440.367L439.587 19.18L435.847 30.4L435.287 32.4H432.907L432.347 30.4ZM443.871 30.4V19.38L443.771 17.28L445.851 17.38H451.671L453.771 17.28L453.671 19.2L451.571 19.1H445.811V23.84H451.131L453.231 23.74L453.131 25.66L451.031 25.56H445.811V30.68H451.731L453.831 30.58L453.731 32.5L451.631 32.4H445.851L443.771 32.5L443.871 30.4Z" fill="#DF0073"/>
</svg>
