<svg width="852" height="40" viewBox="0 0 852 40" fill="none" xmlns="http://www.w3.org/2000/svg">
<rect width="852" height="40" fill="#DF0073"/>
<path d="M386.772 15.33C387.114 16.14 387.258 17.004 387.222 17.472L384.27 17.616C384.45 17.076 384.252 16.248 384.054 15.942C383.532 15.132 382.866 15.006 382.146 15.006C381.192 15.006 380.184 15.258 380.184 16.752C380.184 17.976 381.462 18.372 383.514 18.876C385.764 19.416 387.69 20.334 387.69 23.034C387.69 26.22 384.648 27.246 382.47 27.246C380.292 27.246 378.006 26.328 377.268 24.15C376.998 23.394 376.818 22.386 376.872 22.026L379.824 21.882C379.752 22.692 379.824 23.34 379.95 23.592C380.508 24.762 381.624 24.996 382.524 24.996C383.64 24.996 384.864 24.762 384.864 23.106C384.864 21.684 383.622 21.216 381.552 20.73C379.338 20.208 377.358 19.398 377.358 16.878C377.358 13.944 379.986 12.738 382.218 12.738C384.198 12.738 385.98 13.548 386.772 15.33ZM397.118 27.246C393.914 27.246 391.646 25.536 391.646 21.684V15.222L391.466 12.936L394.634 13.08L394.454 15.312V21.684C394.454 23.934 395.498 24.996 397.118 24.996C398.666 24.996 399.566 23.862 399.566 21.684V15.312L399.386 13.08L402.554 12.936L402.374 15.222V21.684C402.374 25.5 400.142 27.246 397.118 27.246ZM412.559 27.246C408.383 27.246 406.421 23.988 406.421 20.028C406.421 16.104 408.545 12.738 412.703 12.738C414.917 12.738 416.753 13.854 417.617 15.6C418.031 16.41 418.319 17.292 418.391 17.76L415.151 17.904C415.295 17.31 415.025 16.518 414.863 16.248C414.395 15.456 413.603 15.006 412.685 15.006C410.273 15.006 409.247 17.328 409.247 19.902C409.247 22.638 410.219 24.996 412.703 24.996C413.963 24.996 414.737 24.204 415.223 22.836C415.349 22.476 415.439 21.792 415.295 21.072L418.535 21.234C418.373 22.026 418.139 22.746 417.941 23.34C417.149 25.77 415.349 27.246 412.559 27.246ZM427.912 27.246C423.736 27.246 421.774 23.988 421.774 20.028C421.774 16.104 423.898 12.738 428.056 12.738C430.27 12.738 432.106 13.854 432.97 15.6C433.384 16.41 433.672 17.292 433.744 17.76L430.504 17.904C430.648 17.31 430.378 16.518 430.216 16.248C429.748 15.456 428.956 15.006 428.038 15.006C425.626 15.006 424.6 17.328 424.6 19.902C424.6 22.638 425.572 24.996 428.056 24.996C429.316 24.996 430.09 24.204 430.576 22.836C430.702 22.476 430.792 21.792 430.648 21.072L433.888 21.234C433.726 22.026 433.492 22.746 433.294 23.34C432.502 25.77 430.702 27.246 427.912 27.246ZM437.847 24.78V15.222L437.667 12.882L440.187 13.062H444.669L447.135 12.882L447.009 15.51L444.579 15.33H440.673V18.696H444.183L446.649 18.516L446.523 21.144L444.093 20.964H440.673V24.672H444.723L447.189 24.492L447.063 27.12L444.633 26.94H440.187L437.667 27.12L437.847 24.78ZM460.161 15.33C460.503 16.14 460.647 17.004 460.611 17.472L457.659 17.616C457.839 17.076 457.641 16.248 457.443 15.942C456.921 15.132 456.255 15.006 455.535 15.006C454.581 15.006 453.573 15.258 453.573 16.752C453.573 17.976 454.851 18.372 456.903 18.876C459.153 19.416 461.079 20.334 461.079 23.034C461.079 26.22 458.037 27.246 455.859 27.246C453.681 27.246 451.395 26.328 450.657 24.15C450.387 23.394 450.207 22.386 450.261 22.026L453.213 21.882C453.141 22.692 453.213 23.34 453.339 23.592C453.897 24.762 455.013 24.996 455.913 24.996C457.029 24.996 458.253 24.762 458.253 23.106C458.253 21.684 457.011 21.216 454.941 20.73C452.727 20.208 450.747 19.398 450.747 16.878C450.747 13.944 453.375 12.738 455.607 12.738C457.587 12.738 459.369 13.548 460.161 15.33ZM474.142 15.33C474.484 16.14 474.628 17.004 474.592 17.472L471.64 17.616C471.82 17.076 471.622 16.248 471.424 15.942C470.902 15.132 470.236 15.006 469.516 15.006C468.562 15.006 467.554 15.258 467.554 16.752C467.554 17.976 468.832 18.372 470.884 18.876C473.134 19.416 475.06 20.334 475.06 23.034C475.06 26.22 472.018 27.246 469.84 27.246C467.662 27.246 465.376 26.328 464.638 24.15C464.368 23.394 464.188 22.386 464.242 22.026L467.194 21.882C467.122 22.692 467.194 23.34 467.32 23.592C467.878 24.762 468.994 24.996 469.894 24.996C471.01 24.996 472.234 24.762 472.234 23.106C472.234 21.684 470.992 21.216 468.922 20.73C466.708 20.208 464.728 19.398 464.728 16.878C464.728 13.944 467.356 12.738 469.588 12.738C471.568 12.738 473.35 13.548 474.142 15.33Z" fill="white"/>
</svg>
