<svg width="852" height="40" viewBox="0 0 852 40" fill="none" xmlns="http://www.w3.org/2000/svg">
<rect width="852" height="40" fill="#FFB5DB"/>
<path d="M369.225 26.922L369.405 24.69V15.33H368.019L365.589 15.51L365.463 12.882L367.929 13.062H373.707L376.173 12.882L376.047 15.51L373.617 15.33H372.231V24.78L372.411 27.048L369.225 26.922ZM382.505 26.922L379.319 27.048L379.499 24.78V15.222L379.319 12.864L381.839 13.062H385.385C388.157 13.062 389.849 14.61 389.849 16.896C389.849 18.228 389.363 19.488 388.103 20.226C389.183 20.82 389.417 21.9 389.543 22.998C389.651 24.492 389.525 26.076 390.947 26.814L387.563 26.976C386.681 26.184 387.059 24.618 386.807 23.484C386.627 22.188 386.429 21.378 385.223 21.378H382.325V24.69L382.505 26.922ZM384.611 19.11C386.015 19.11 387.023 18.804 387.023 17.166C387.023 16.014 386.501 15.33 385.295 15.33H382.325V19.11H384.611ZM398.147 26.922L398.255 24.69V21.288L394.673 15.15L393.179 13.062H396.779L397.751 14.97L399.713 18.516L401.639 14.97L402.593 13.062H406.103L404.573 15.24L401.081 21.288V24.78L401.189 27.048L398.147 26.922ZM415.17 24.708L418.842 15.186L419.382 13.062H421.902L422.442 15.186L426.114 24.708L427.086 26.94H423.72L423.18 24.87L422.568 23.25H418.608L417.978 24.816L417.438 26.94H414.198L415.17 24.708ZM421.794 20.982L420.606 17.688L419.418 20.982H421.794ZM435.925 27.246C431.839 27.246 429.607 23.934 429.607 20.262C429.607 16.212 431.641 12.738 435.925 12.738C438.211 12.738 440.119 13.71 441.037 15.366C441.469 16.14 441.811 17.04 441.865 17.49L438.625 17.616C438.715 17.022 438.499 16.338 438.265 15.96C437.887 15.348 436.987 15.006 435.925 15.006C433.441 15.006 432.433 17.562 432.433 20.172C432.433 22.674 433.657 24.996 435.925 24.996C437.995 24.996 439.075 23.358 439.129 21.702H438.283L435.853 21.882L435.727 19.254L438.193 19.434H439.417L441.937 19.254L441.739 21.612C441.559 23.934 440.065 27.246 435.925 27.246ZM445.331 24.708L449.003 15.186L449.543 13.062H452.063L452.603 15.186L456.275 24.708L457.247 26.94H453.881L453.341 24.87L452.729 23.25H448.769L448.139 24.816L447.599 26.94H444.359L445.331 24.708ZM451.955 20.982L450.767 17.688L449.579 20.982H451.955ZM460.308 26.922L460.488 24.69V15.312L460.308 13.08L463.494 12.954L463.314 15.222V24.78L463.494 27.048L460.308 26.922ZM468.177 24.78V15.222L467.997 12.954L471.111 13.08L472.227 15.15L476.043 21.936V15.312L475.863 13.08L478.995 12.936L478.815 15.222V24.78L478.995 27.048L475.863 26.922L474.747 24.852L470.949 18.138V24.69L471.129 26.922L467.997 27.066L468.177 24.78ZM483.364 17.346L483.274 12.9H486.424L486.334 17.346L485.812 23.304H483.886L483.364 17.346ZM483.382 25.482L483.292 23.916L484.858 23.988L486.406 23.916L486.316 25.482L486.406 27.048L484.858 26.976L483.292 27.048L483.382 25.482Z" fill="#191919"/>
</svg>
