<svg width="852" height="50" viewBox="0 0 852 50" fill="none" xmlns="http://www.w3.org/2000/svg">
<rect x="-0.5" width="852" height="50" fill="#191919"/>
<path d="M410.456 32.74C407.876 32.74 405.616 31.68 404.836 29.36C404.636 28.8 404.476 28.04 404.436 27.52L406.476 27.42C406.436 27.86 406.496 28.6 406.716 29.06C407.376 30.46 408.936 31.04 410.516 31.04C412.316 31.04 414.116 30.48 414.116 28.34C414.116 26.28 411.876 25.96 409.576 25.42C407.196 24.86 404.976 24.16 404.976 21.42C404.976 18.4 407.556 17.02 410.176 17.02C412.496 17.02 414.236 17.94 415.076 19.86C415.336 20.46 415.496 21.18 415.536 21.7L413.536 21.8C413.556 21.26 413.416 20.62 413.116 20.16C412.496 19.2 411.476 18.74 410.096 18.74C408.436 18.74 406.916 19.34 406.916 21.28C406.916 23.12 409.196 23.36 411.476 23.92C413.856 24.5 416.056 25.32 416.056 28.26C416.056 31.54 413.056 32.74 410.456 32.74ZM419.541 30.46L423.641 19.4L424.241 17.38H426.681L427.281 19.4L431.381 30.46L432.161 32.4H429.861L429.261 30.38L428.401 27.9H422.401L421.521 30.38L420.921 32.4H418.761L419.541 30.46ZM427.801 26.18L425.421 19.24L423.001 26.18H427.801ZM435.664 30.4V19.38L435.564 17.28L437.644 17.38H440.584C445.004 17.38 447.464 19.74 447.464 24.54C447.464 29.58 445.324 32.46 440.584 32.42L437.644 32.4L435.564 32.5L435.664 30.4ZM440.744 30.7C444.104 30.7 445.524 28.26 445.524 24.82C445.524 21.22 444.264 19.1 440.784 19.1H437.604V30.7H440.744Z" fill="#49BDEA"/>
</svg>
