<svg width="852" height="50" viewBox="0 0 852 50" fill="none" xmlns="http://www.w3.org/2000/svg">
<rect width="852" height="50" fill="#007E37"/>
<path d="M406.254 32.58L402.734 32.74L402.934 30.2V19.58L402.734 16.98L405.534 17.18H410.034L412.774 16.98L412.634 19.9L409.934 19.7H406.054V23.44H409.114L411.854 23.24L411.714 26.16L409.014 25.96H406.054V30.1L406.254 32.58ZM416.363 30.12L420.443 19.54L421.043 17.18H423.843L424.443 19.54L428.523 30.12L429.603 32.6H425.863L425.263 30.3L424.583 28.5H420.183L419.483 30.24L418.883 32.6H415.283L416.363 30.12ZM423.723 25.98L422.403 22.32L421.083 25.98H423.723ZM433.004 32.58L433.204 30.1V19.68L433.004 17.2L436.544 17.06L436.344 19.58V30.2L436.544 32.72L433.004 32.58ZM441.747 30.2V19.58L441.547 17.06L445.087 17.2L444.887 19.68V30.1H448.927L451.667 29.9L451.527 32.8L448.827 32.6H444.347L441.547 32.8L441.747 30.2Z" fill="white"/>
</svg>
