<svg width="852" height="50" viewBox="0 0 852 50" fill="none" xmlns="http://www.w3.org/2000/svg">
<rect width="852" height="50" fill="#003A7C"/>
<path d="M382.913 19.7C383.293 20.6 383.453 21.56 383.413 22.08L380.133 22.24C380.333 21.64 380.113 20.72 379.893 20.38C379.313 19.48 378.573 19.34 377.773 19.34C376.713 19.34 375.593 19.62 375.593 21.28C375.593 22.64 377.013 23.08 379.293 23.64C381.793 24.24 383.933 25.26 383.933 28.26C383.933 31.8 380.553 32.94 378.133 32.94C375.713 32.94 373.173 31.92 372.353 29.5C372.053 28.66 371.853 27.54 371.913 27.14L375.193 26.98C375.113 27.88 375.193 28.6 375.333 28.88C375.953 30.18 377.193 30.44 378.193 30.44C379.433 30.44 380.793 30.18 380.793 28.34C380.793 26.76 379.413 26.24 377.113 25.7C374.653 25.12 372.453 24.22 372.453 21.42C372.453 18.16 375.373 16.82 377.853 16.82C380.053 16.82 382.033 17.72 382.913 19.7ZM394.409 32.94C390.849 32.94 388.329 31.04 388.329 26.76V19.58L388.129 17.04L391.649 17.2L391.449 19.68V26.76C391.449 29.26 392.609 30.44 394.409 30.44C396.129 30.44 397.129 29.18 397.129 26.76V19.68L396.929 17.2L400.449 17.04L400.249 19.58V26.76C400.249 31 397.769 32.94 394.409 32.94ZM411.566 32.94C406.926 32.94 404.746 29.32 404.746 24.92C404.746 20.56 407.106 16.82 411.726 16.82C414.186 16.82 416.226 18.06 417.186 20C417.646 20.9 417.966 21.88 418.046 22.4L414.446 22.56C414.606 21.9 414.306 21.02 414.126 20.72C413.606 19.84 412.726 19.34 411.706 19.34C409.026 19.34 407.886 21.92 407.886 24.78C407.886 27.82 408.966 30.44 411.726 30.44C413.126 30.44 413.986 29.56 414.526 28.04C414.666 27.64 414.766 26.88 414.606 26.08L418.206 26.26C418.026 27.14 417.766 27.94 417.546 28.6C416.666 31.3 414.666 32.94 411.566 32.94ZM428.624 32.94C423.984 32.94 421.804 29.32 421.804 24.92C421.804 20.56 424.164 16.82 428.784 16.82C431.244 16.82 433.284 18.06 434.244 20C434.704 20.9 435.024 21.88 435.104 22.4L431.504 22.56C431.664 21.9 431.364 21.02 431.184 20.72C430.664 19.84 429.784 19.34 428.764 19.34C426.084 19.34 424.944 21.92 424.944 24.78C424.944 27.82 426.024 30.44 428.784 30.44C430.184 30.44 431.044 29.56 431.584 28.04C431.724 27.64 431.824 26.88 431.664 26.08L435.264 26.26C435.084 27.14 434.824 27.94 434.604 28.6C433.724 31.3 431.724 32.94 428.624 32.94ZM439.663 30.2V19.58L439.463 16.98L442.263 17.18H447.243L449.983 16.98L449.843 19.9L447.143 19.7H442.803V23.44H446.703L449.443 23.24L449.303 26.16L446.603 25.96H442.803V30.08H447.303L450.043 29.88L449.903 32.8L447.203 32.6H442.263L439.463 32.8L439.663 30.2ZM464.456 19.7C464.836 20.6 464.996 21.56 464.956 22.08L461.676 22.24C461.876 21.64 461.656 20.72 461.436 20.38C460.856 19.48 460.116 19.34 459.316 19.34C458.256 19.34 457.136 19.62 457.136 21.28C457.136 22.64 458.556 23.08 460.836 23.64C463.336 24.24 465.476 25.26 465.476 28.26C465.476 31.8 462.096 32.94 459.676 32.94C457.256 32.94 454.716 31.92 453.896 29.5C453.596 28.66 453.396 27.54 453.456 27.14L456.736 26.98C456.656 27.88 456.736 28.6 456.876 28.88C457.496 30.18 458.736 30.44 459.736 30.44C460.976 30.44 462.336 30.18 462.336 28.34C462.336 26.76 460.956 26.24 458.656 25.7C456.196 25.12 453.996 24.22 453.996 21.42C453.996 18.16 456.916 16.82 459.396 16.82C461.596 16.82 463.576 17.72 464.456 19.7ZM479.991 19.7C480.371 20.6 480.531 21.56 480.491 22.08L477.211 22.24C477.411 21.64 477.191 20.72 476.971 20.38C476.391 19.48 475.651 19.34 474.851 19.34C473.791 19.34 472.671 19.62 472.671 21.28C472.671 22.64 474.091 23.08 476.371 23.64C478.871 24.24 481.011 25.26 481.011 28.26C481.011 31.8 477.631 32.94 475.211 32.94C472.791 32.94 470.251 31.92 469.431 29.5C469.131 28.66 468.931 27.54 468.991 27.14L472.271 26.98C472.191 27.88 472.271 28.6 472.411 28.88C473.031 30.18 474.271 30.44 475.271 30.44C476.511 30.44 477.871 30.18 477.871 28.34C477.871 26.76 476.491 26.24 474.191 25.7C471.731 25.12 469.531 24.22 469.531 21.42C469.531 18.16 472.451 16.82 474.931 16.82C477.131 16.82 479.111 17.72 479.991 19.7Z" fill="white"/>
</svg>
