<svg width="852" height="50" viewBox="0 0 852 50" fill="none" xmlns="http://www.w3.org/2000/svg">
<rect width="852" height="50" fill="#49BDEA"/>
<path d="M362.362 32.58L362.562 30.1V19.7H361.022L358.322 19.9L358.182 16.98L360.922 17.18H367.342L370.082 16.98L369.942 19.9L367.242 19.7H365.702V30.2L365.902 32.72L362.362 32.58ZM377.116 32.58L373.576 32.72L373.776 30.2V19.58L373.576 16.96L376.376 17.18H380.316C383.396 17.18 385.276 18.9 385.276 21.44C385.276 22.92 384.736 24.32 383.336 25.14C384.536 25.8 384.796 27 384.936 28.22C385.056 29.88 384.916 31.64 386.496 32.46L382.736 32.64C381.756 31.76 382.176 30.02 381.896 28.76C381.696 27.32 381.476 26.42 380.136 26.42H376.916V30.1L377.116 32.58ZM379.456 23.9C381.016 23.9 382.136 23.56 382.136 21.74C382.136 20.46 381.556 19.7 380.216 19.7H376.916V23.9H379.456ZM394.496 32.58L394.616 30.1V26.32L390.636 19.5L388.976 17.18H392.976L394.056 19.3L396.236 23.24L398.376 19.3L399.436 17.18H403.336L401.636 19.6L397.756 26.32V30.2L397.876 32.72L394.496 32.58ZM413.412 30.12L417.492 19.54L418.092 17.18H420.892L421.492 19.54L425.572 30.12L426.652 32.6H422.912L422.312 30.3L421.632 28.5H417.232L416.532 30.24L415.932 32.6H412.332L413.412 30.12ZM420.772 25.98L419.452 22.32L418.132 25.98H420.772ZM436.473 32.94C431.933 32.94 429.453 29.26 429.453 25.18C429.453 20.68 431.713 16.82 436.473 16.82C439.013 16.82 441.133 17.9 442.153 19.74C442.633 20.6 443.013 21.6 443.073 22.1L439.473 22.24C439.573 21.58 439.333 20.82 439.073 20.4C438.653 19.72 437.653 19.34 436.473 19.34C433.713 19.34 432.593 22.18 432.593 25.08C432.593 27.86 433.953 30.44 436.473 30.44C438.773 30.44 439.973 28.62 440.033 26.78H439.093L436.393 26.98L436.253 24.06L438.993 24.26H440.353L443.153 24.06L442.933 26.68C442.733 29.26 441.073 32.94 436.473 32.94ZM446.923 30.12L451.003 19.54L451.603 17.18H454.403L455.003 19.54L459.083 30.12L460.163 32.6H456.423L455.823 30.3L455.143 28.5H450.743L450.043 30.24L449.443 32.6H445.843L446.923 30.12ZM454.283 25.98L452.963 22.32L451.643 25.98H454.283ZM463.564 32.58L463.764 30.1V19.68L463.564 17.2L467.104 17.06L466.904 19.58V30.2L467.104 32.72L463.564 32.58ZM472.307 30.2V19.58L472.107 17.06L475.567 17.2L476.807 19.5L481.047 27.04V19.68L480.847 17.2L484.327 17.04L484.127 19.58V30.2L484.327 32.72L480.847 32.58L479.607 30.28L475.387 22.82V30.1L475.587 32.58L472.107 32.74L472.307 30.2ZM489.182 21.94L489.082 17H492.582L492.482 21.94L491.902 28.56H489.762L489.182 21.94ZM489.202 30.98L489.102 29.24L490.842 29.32L492.562 29.24L492.462 30.98L492.562 32.72L490.842 32.64L489.102 32.72L489.202 30.98Z" fill="#191919"/>
</svg>
