<svg width="852" height="50" viewBox="0 0 852 50" fill="none" xmlns="http://www.w3.org/2000/svg">
<rect x="-0.5" width="852" height="50" fill="#191919"/>
<path d="M396.17 32.74C391.73 32.74 389.55 29.34 389.55 24.92C389.55 20.52 391.93 17.02 396.33 17.02C398.67 17.02 400.69 18.04 401.65 19.98C401.95 20.56 402.19 21.26 402.31 21.82L400.17 21.92C400.15 21.38 399.93 20.72 399.61 20.28C398.87 19.26 397.71 18.74 396.31 18.74C392.95 18.74 391.49 21.62 391.49 24.78C391.49 28.12 392.89 31.04 396.33 31.04C398.25 31.04 399.53 29.96 400.09 28.38C400.27 27.88 400.37 27.2 400.33 26.72L402.47 26.82C402.39 27.3 402.17 28.08 401.97 28.68C401.13 31.28 399.17 32.74 396.17 32.74ZM406.762 30.4V19.38L406.662 17.28L408.742 17.38H413.502C416.242 17.38 417.862 18.9 417.862 21.34C417.862 23.16 417.122 24.62 415.382 25.16C417.022 25.52 417.362 26.8 417.522 28.26C417.622 29.68 417.442 31.16 418.382 32.32L416.222 32.42C415.662 31.76 415.942 30.14 415.682 28.7C415.482 27.28 415.162 26.02 413.322 26.02H408.702V30.3L408.802 32.4L406.662 32.5L406.762 30.4ZM412.642 24.3C414.362 24.3 415.922 23.86 415.922 21.64C415.922 20.14 415.162 19.1 413.402 19.1H408.702V24.3H412.642ZM421.651 30.46L425.751 19.4L426.351 17.38H428.791L429.391 19.4L433.491 30.46L434.271 32.4H431.971L431.371 30.38L430.511 27.9H424.511L423.631 30.38L423.031 32.4H420.871L421.651 30.46ZM429.911 26.18L427.531 19.24L425.111 26.18H429.911ZM436.574 30.7L445.414 19.1H439.454L437.354 19.2L437.254 17.28L439.354 17.38H445.734L447.834 17.28L447.734 19.08L438.894 30.68H445.874L447.974 30.58L447.874 32.5L445.774 32.4H438.574L436.474 32.5L436.574 30.7ZM455.821 32.4L455.921 30.3V26.26L451.501 19.16L450.281 17.38H452.781L453.841 19.3L456.961 24.5L460.001 19.3L461.041 17.38H463.441L462.241 19.18L457.861 26.26V30.4L457.961 32.5L455.821 32.4Z" fill="#CAEF13"/>
</svg>
