<svg width="582" height="49" viewBox="0 0 582 49" fill="none" xmlns="http://www.w3.org/2000/svg">
<path d="M15.351 18.312L15.456 16.107V9.996H12.81V15.792L12.915 17.997L10.731 17.892L10.836 15.687V2.73L10.731 0.524996L12.915 0.419996L12.81 2.625V8.19H15.456V2.52L15.351 0.314995L17.535 0.209995L17.43 2.415V16.212L17.535 18.417L15.351 18.312ZM1.46516e-05 13.755C0.399015 13.272 0.798015 12.621 1.13401 11.949C2.14201 9.912 3.27601 6.531 3.71701 3.927L3.73801 3.78H2.94001L0.735015 3.885L0.630015 1.86899L2.83501 1.974H6.82501L9.03002 1.86899L8.92501 3.885L6.72002 3.78H5.81701C5.54402 5.397 5.12401 7.203 4.53602 8.967L8.12702 11.487L9.95401 12.621L8.77801 14.406L7.09802 13.104L3.84301 10.815C3.23401 12.348 2.47801 13.776 1.57501 14.931L1.46516e-05 13.755ZM34.1452 18.312L34.2502 16.107V2.52L34.1452 0.314995L36.3292 0.209995L36.2242 2.415V8.19H37.1692L39.3742 8.085L39.2692 10.101L37.0642 9.996H36.2242V16.212L36.3292 18.417L34.1452 18.312ZM27.2992 12.453V4.09499L27.1942 1.89L29.3362 1.995L29.2312 4.2V6.594H30.4072V4.2L30.3022 1.995L32.4862 1.89L32.3812 4.09499V12.453L32.4862 14.658L30.3022 14.553H29.3992L27.1942 14.658L27.2992 12.453ZM21.1042 12.453V4.09499L20.9992 1.89L23.1832 1.995L23.0782 4.2V6.594H24.2542V4.2L24.1492 1.995L26.2912 1.89L26.1862 4.09499V12.453L26.2912 14.658L24.1072 14.553H23.2042L20.9992 14.658L21.1042 12.453ZM24.2542 12.747V8.337H23.0782V12.747H24.2542ZM30.4072 12.747V8.337H29.2312V12.747H30.4072ZM40.6334 14.784L42.8384 14.889H56.4884L58.6934 14.784L58.5884 16.8L56.3834 16.695H42.9434L40.7384 16.8L40.6334 14.784ZM42.8174 9.786V7.791L42.7124 5.586L44.9174 5.691H54.3254V3.045H45.0224L42.8174 3.15L42.7124 1.134L44.9174 1.239H54.1994L56.4044 1.134L56.2994 3.339V5.292L56.4044 7.497L54.3254 7.413H44.7914V10.08H54.7244L56.9294 9.975L56.8244 11.991L54.6194 11.886H44.9174L42.7124 11.991L42.8174 9.786ZM60.2676 13.419C60.9186 13.041 61.4646 12.663 61.9476 12.243C64.6146 9.912 66.0846 7.308 66.7776 3.80099H63.1446L60.9396 3.906L60.8346 1.89L63.0396 1.995H67.1136L69.3396 1.89C69.0876 3.444 68.7726 4.87199 68.3526 6.195H71.5236V2.73L71.4186 0.524996L73.6026 0.419996L73.4976 2.625V15.792L73.6026 17.997L71.4186 17.892L71.5236 15.687V8.001H67.6806C66.5256 10.668 64.7196 12.957 61.7376 15.162L60.2676 13.419ZM75.8286 18.312L75.9336 16.107V2.52L75.8286 0.314995L78.0126 0.209995L77.9076 2.415V16.212L78.0126 18.417L75.8286 18.312ZM91.9718 9.324C92.2868 9.135 92.6228 8.883 92.9168 8.589C94.2188 7.266 95.4158 4.998 95.6048 2.961H95.2688L93.2738 3.066L93.1688 1.05L95.1638 1.155H95.9618L98.1878 1.05C97.7048 5.376 96.4448 8.337 93.4418 10.857L91.9718 9.324ZM86.3018 8.484C86.6168 8.337 86.9318 8.127 87.2468 7.854C88.7588 6.531 89.8088 4.788 90.1028 2.961H89.5988L87.3938 3.066L87.2888 1.05L89.4938 1.155H90.5018L92.7278 1.05C92.0348 5.376 90.4598 8.022 87.5618 10.122L86.3018 8.484ZM100.078 10.542L100.183 8.337V2.31L100.078 0.104995L102.262 -4.88758e-06L102.157 2.205V5.25H103.102L105.307 5.145L105.202 7.161L102.997 7.056H102.157V8.442L102.262 10.647L100.078 10.542ZM89.7458 16.695V13.944L89.6408 11.739L91.8458 11.844H99.8468L102.052 11.739L101.947 13.944V16.695L102.052 18.9L99.8468 18.795H91.8458L89.6408 18.9L89.7458 16.695ZM99.9728 16.989V13.65H91.7198V16.989H99.9728ZM120.027 18.795L120.132 16.59V13.65H111.9L109.695 13.755L109.59 11.739L111.795 11.844H120.195L122.211 11.739L122.106 13.944V16.695L122.211 18.9L120.027 18.795ZM120.237 10.542L120.342 8.337V2.31L120.237 0.104995L122.421 -4.88758e-06L122.316 2.205V5.25H123.261L125.466 5.145L125.361 7.161L123.156 7.056H122.316V8.442L122.421 10.647L120.237 10.542ZM113.391 7.833V3.045L113.286 0.839996L115.428 0.944995L115.323 3.15V3.759H116.499V3.15L116.394 0.944995L118.578 0.839996L118.473 3.045V7.833L118.578 10.038L116.394 9.933H115.491L113.286 10.038L113.391 7.833ZM107.196 7.833V3.045L107.091 0.839996L109.275 0.944995L109.17 3.15V3.759H110.346V3.15L110.241 0.944995L112.383 0.839996L112.278 3.045V7.833L112.383 10.038L110.199 9.933H109.296L107.091 10.038L107.196 7.833ZM110.346 8.127V5.502H109.17V8.127H110.346ZM116.499 8.127V5.502H115.323V8.127H116.499ZM141.026 18.312L141.131 16.107V2.52L141.026 0.314995L143.21 0.209995L143.105 2.415V16.212L143.21 18.417L141.026 18.312ZM132.668 15.246C129.371 15.246 127.46 12.852 127.46 8.463C127.46 4.074 129.371 1.659 132.668 1.659C135.965 1.659 137.876 4.074 137.876 8.463C137.876 12.852 135.965 15.246 132.668 15.246ZM132.668 13.44C134.747 13.44 135.965 11.739 135.965 8.463C135.965 5.166 134.747 3.465 132.668 3.465C130.589 3.465 129.371 5.166 129.371 8.463C129.371 11.739 130.589 13.44 132.668 13.44ZM149.383 16.443V15.141L149.278 12.936L151.462 13.041L151.357 15.246V16.737H160.429L162.634 16.632L162.529 18.648L160.324 18.543H151.483L149.278 18.648L149.383 16.443ZM149.299 6.027V2.961L149.194 0.755995L151.378 0.860995L151.273 3.066V6.321H160.429L162.634 6.216L162.529 8.232L160.324 8.127H151.399L149.194 8.232L149.299 6.027ZM146.884 9.702L149.089 9.807H162.739L164.944 9.702L164.839 11.676L162.634 11.571H149.194L146.989 11.676L146.884 9.702ZM174.998 16.443V15.141L174.893 12.936L177.077 13.041L176.972 15.246V16.737H186.044L188.249 16.632L188.144 18.648L185.939 18.543H177.098L174.893 18.648L174.998 16.443ZM174.914 6.027V2.961L174.809 0.755995L176.993 0.860995L176.888 3.066V6.321H186.044L188.249 6.216L188.144 8.232L185.939 8.127H177.014L174.809 8.232L174.914 6.027ZM172.499 9.702L174.704 9.807H188.354L190.559 9.702L190.454 11.676L188.249 11.571H182.789V13.566L182.894 15.771L180.71 15.666L180.815 13.461V11.571H174.809L172.604 11.676L172.499 9.702ZM195.157 16.8V16.233L195.052 14.028L197.257 14.133H206.035V12.831H197.362L195.157 12.936L195.052 11.004L197.257 11.109H205.909L208.114 11.004L208.009 13.209V13.734L208.114 15.939L206.035 15.855H197.131V17.178H206.539L208.744 17.073L208.639 19.005L206.434 18.9H197.257L195.052 19.005L195.157 16.8ZM201.583 7.014C197.005 7.014 194.695 5.712 194.695 3.717C194.695 1.701 197.005 0.398995 201.583 0.398995C206.161 0.398995 208.471 1.701 208.471 3.717C208.471 5.712 206.161 7.014 201.583 7.014ZM201.583 5.208C204.922 5.208 206.497 4.599 206.497 3.717C206.497 2.83499 204.922 2.205 201.583 2.205C198.244 2.205 196.669 2.83499 196.669 3.717C196.669 4.599 198.244 5.208 201.583 5.208ZM192.658 7.917L194.863 8.022H208.513L210.718 7.917L210.613 9.891L208.408 9.786H194.968L192.763 9.891L192.658 7.917ZM233.308 18.312L233.413 16.107V9.996H230.557V15.792L230.662 17.997L228.478 17.892L228.583 15.687V2.73L228.478 0.524996L230.662 0.419996L230.557 2.625V8.19H233.413V2.52L233.308 0.314995L235.492 0.209995L235.387 2.415V16.212L235.492 18.417L233.308 18.312ZM217.747 13.419C218.398 13.041 218.944 12.663 219.427 12.243C220.855 11.004 221.926 9.702 222.724 8.211H220.162L217.957 8.316L217.852 6.3L220.057 6.405H223.543C223.837 5.586 224.068 4.725 224.257 3.80099H221.254L219.049 3.906L218.944 1.89L221.149 1.995H224.593L226.819 1.89C225.916 7.56 224.215 11.445 219.217 15.162L217.747 13.419ZM252.732 18.312L252.837 16.107V2.52L252.732 0.314995L254.916 0.209995L254.811 2.415V16.212L254.916 18.417L252.732 18.312ZM238.431 14.322C238.956 13.734 239.397 13.23 239.859 12.6C241.308 10.626 242.652 8.064 243.366 5.922L243.513 5.46H241.266L239.061 5.565L238.956 3.549L241.161 3.654H243.597V2.94L243.492 0.734996L245.676 0.629996L245.571 2.83499V3.654H248.091L250.296 3.549L250.191 5.565L247.986 5.46H245.571C245.172 6.825 244.626 8.211 243.975 9.576L248.847 12.075L250.821 12.936L249.792 14.805L247.944 13.755L243.072 11.277C242.169 12.894 241.119 14.385 240.006 15.666L238.431 14.322ZM273.626 18.312L273.731 16.107V9.996H271.085V15.792L271.19 17.997L269.006 17.892L269.111 15.687V2.73L269.006 0.524996L271.19 0.419996L271.085 2.625V8.19H273.731V2.52L273.626 0.314995L275.81 0.209995L275.705 2.415V16.212L275.81 18.417L273.626 18.312ZM263.315 15.729C260.627 15.729 259.136 13.965 259.136 11.235C259.136 8.505 260.627 6.72 263.315 6.72C266.024 6.72 267.515 8.505 267.515 11.235C267.515 13.965 266.024 15.729 263.315 15.729ZM263.315 13.923C264.785 13.923 265.583 12.894 265.583 11.193C265.583 9.471 264.785 8.442 263.315 8.442C261.845 8.442 261.068 9.471 261.068 11.193C261.068 12.894 261.845 13.923 263.315 13.923ZM258.38 3.486L260.585 3.591H262.328V3.15L262.223 0.944995L264.407 0.839996L264.302 3.045V3.591H265.94L268.145 3.486L268.04 5.46L265.835 5.355H260.69L258.485 5.46L258.38 3.486ZM284.205 14.574L286.41 14.679H298.002V3.276H288.384L286.179 3.381L286.074 1.365L288.279 1.46999H297.876L300.081 1.365L299.976 3.57V14.679H300.06L302.265 14.574L302.16 16.59L299.955 16.485H286.515L284.31 16.59L284.205 14.574ZM306.863 16.8V16.233L306.758 14.028L308.963 14.133H317.741V12.831H309.068L306.863 12.936L306.758 11.004L308.963 11.109H317.615L319.82 11.004L319.715 13.209V13.734L319.82 15.939L317.741 15.855H308.837V17.178H318.245L320.45 17.073L320.345 19.005L318.14 18.9H308.963L306.758 19.005L306.863 16.8ZM306.779 4.662V2.73L306.674 0.524996L308.858 0.629996H317.489L319.694 0.524996L319.589 2.54099L317.384 2.436H308.774L308.753 2.83499V4.998H317.909L320.114 4.893L320.009 6.867L317.804 6.762H308.879L306.674 6.867L306.779 4.662ZM304.364 7.812L306.569 7.917H320.219L322.424 7.812L322.319 9.786L320.114 9.681H306.674L304.469 9.786L304.364 7.812ZM333.679 11.193L333.784 8.988V3.276H327.568L325.363 3.381L325.258 1.365L327.463 1.46999H333.847L335.863 1.365L335.758 3.57V9.093L335.863 11.298L333.679 11.193ZM324.313 13.251L326.728 13.356H328.366V8.274L328.261 6.069L330.445 5.964L330.34 8.169V13.356H338.089V2.52L337.984 0.314995L340.168 0.209995L340.063 2.415V8.4H341.008L343.213 8.295L343.108 10.311L340.903 10.206H340.063V16.212L340.168 18.417L337.984 18.312L338.089 16.107V15.162H326.623L324.418 15.267L324.313 13.251ZM358.773 18.312L358.878 16.107V14.952H347.202L344.997 15.057L344.892 13.041L347.307 13.146H358.878V2.52L358.773 0.314995L360.957 0.209995L360.852 2.415V16.212L360.957 18.417L358.773 18.312ZM351.192 10.626C347.874 10.626 345.732 8.841 345.732 5.838C345.732 2.83499 347.874 1.029 351.192 1.029C354.51 1.029 356.652 2.83499 356.652 5.838C356.652 8.841 354.51 10.626 351.192 10.626ZM351.192 8.82C353.334 8.82 354.741 7.707 354.741 5.838C354.741 3.948 353.334 2.83499 351.192 2.83499C349.05 2.83499 347.643 3.948 347.643 5.838C347.643 7.707 349.05 8.82 351.192 8.82ZM372.795 16.443V15.141L372.69 12.936L374.874 13.041L374.769 15.246V16.737H383.841L386.046 16.632L385.941 18.648L383.736 18.543H374.895L372.69 18.648L372.795 16.443ZM372.711 6.027V2.961L372.606 0.755995L374.79 0.860995L374.685 3.066V6.321H383.841L386.046 6.216L385.941 8.232L383.736 8.127H374.811L372.606 8.232L372.711 6.027ZM370.296 9.702L372.501 9.807H386.151L388.356 9.702L388.251 11.676L386.046 11.571H380.586V13.566L380.691 15.771L378.507 15.666L378.612 13.461V11.571H372.606L370.401 11.676L370.296 9.702ZM404.127 18.312L404.232 16.107V2.52L404.127 0.314995L406.311 0.209995L406.206 2.415V8.19H407.151L409.356 8.085L409.251 10.101L407.046 9.996H406.206V16.212L406.311 18.417L404.127 18.312ZM395.034 13.671C395.454 13.083 395.895 12.369 396.21 11.739L396.231 11.697L394.74 10.374L393.921 9.681C393.207 11.361 392.367 12.852 391.422 14.007L389.826 12.831C390.246 12.285 390.687 11.634 391.002 11.046C392.052 9.051 393.186 6.048 393.585 3.57C393.69 2.919 393.774 2.35199 393.837 1.76399L395.979 2.184C395.706 4.074 395.244 6.006 394.635 7.77L395.958 8.925L397.071 9.723C397.806 7.791 398.478 5.523 398.793 3.717C398.919 3.02399 399.024 2.373 399.087 1.76399L401.208 2.226C400.83 4.662 400.221 7.161 399.423 9.387L401.649 11.214L403.371 12.495L402.027 14.07L400.41 12.663L398.709 11.256C398.1 12.642 397.386 13.881 396.63 14.847L395.034 13.671ZM410.615 8.757L412.82 8.862H426.47L428.675 8.757L428.57 10.731L426.365 10.626H420.527V12.411H423.866L426.071 12.306L425.966 14.511V16.695L426.071 18.9L423.866 18.795H415.214L413.009 18.9L413.114 16.695V14.511L413.009 12.306L415.214 12.411H418.553V10.626H412.925L410.72 10.731L410.615 8.757ZM419.54 7.77C414.962 7.77 412.652 6.3 412.652 4.09499C412.652 1.86899 414.962 0.398995 419.54 0.398995C424.118 0.398995 426.428 1.86899 426.428 4.09499C426.428 6.3 424.118 7.77 419.54 7.77ZM419.54 5.964C422.879 5.964 424.454 5.187 424.454 4.09499C424.454 3.003 422.879 2.205 419.54 2.205C416.201 2.205 414.626 3.003 414.626 4.09499C414.626 5.187 416.201 5.964 419.54 5.964ZM423.992 16.989V14.217H415.088V16.989H423.992ZM445.81 18.312L445.915 16.107V2.52L445.81 0.314995L447.994 0.209995L447.889 2.415V16.212L447.994 18.417L445.81 18.312ZM441.4 17.892L441.505 15.687V9.366H439.279C439.069 12.852 437.788 14.952 435.247 14.952C432.475 14.952 431.194 12.432 431.194 8.358C431.194 4.284 432.475 1.76399 435.247 1.76399C437.83 1.76399 439.132 3.948 439.279 7.56H441.505V2.73L441.4 0.524996L443.584 0.419996L443.479 2.625V15.792L443.584 17.997L441.4 17.892ZM435.247 13.146C436.801 13.146 437.389 11.34 437.389 8.358C437.389 5.376 436.801 3.57 435.247 3.57C433.693 3.57 433.105 5.376 433.105 8.358C433.105 11.34 433.693 13.146 435.247 13.146ZM465.234 18.312L465.339 16.107V7.686H461.433L459.228 7.791L459.123 5.775L461.328 5.88H465.339V2.52L465.234 0.314995L467.418 0.209995L467.313 2.415V16.212L467.418 18.417L465.234 18.312ZM450.933 13.545C451.437 12.957 451.941 12.264 452.34 11.634C453.81 9.324 455.175 6.195 455.868 3.507C456.057 2.772 456.141 2.184 456.225 1.554L458.325 2.016C457.926 4.074 457.296 6.153 456.498 8.064L461.412 11.382L463.26 12.495L462.021 14.196L460.32 12.936L455.7 9.849C454.776 11.739 453.684 13.419 452.508 14.721L450.933 13.545ZM490.848 18.312L490.953 16.107V2.52L490.848 0.314995L493.032 0.209995L492.927 2.415V16.212L493.032 18.417L490.848 18.312ZM482.49 15.246C479.193 15.246 477.282 12.852 477.282 8.463C477.282 4.074 479.193 1.659 482.49 1.659C485.787 1.659 487.698 4.074 487.698 8.463C487.698 12.852 485.787 15.246 482.49 15.246ZM482.49 13.44C484.569 13.44 485.787 11.739 485.787 8.463C485.787 5.166 484.569 3.465 482.49 3.465C480.411 3.465 479.193 5.166 479.193 8.463C479.193 11.739 480.411 13.44 482.49 13.44ZM496.392 13.356C497.043 13.062 497.589 12.768 498.072 12.453C501.621 10.143 503.511 7.875 504.981 3.80099H499.899L497.694 3.906L497.589 1.89L499.794 1.995H505.548L507.774 1.89C507.522 2.898 507.228 3.843 506.892 4.725H511.113V2.52L511.008 0.314995L513.192 0.209995L513.087 2.415V16.212L513.192 18.417L511.008 18.312L511.113 16.107V11.361H506.955L504.75 11.466L504.645 9.45L506.85 9.555H511.113V6.531H506.115C504.309 10.248 501.6 12.915 497.652 15.162L496.392 13.356ZM516.866 14.826L519.071 14.931H524.804V11.193H521.15L518.945 11.298L519.05 9.093V3.36L518.945 1.155L521.129 1.26L521.024 3.465V4.578H530.558V3.465L530.453 1.26L532.637 1.155L532.532 3.36V9.093L532.637 11.298L530.453 11.193H526.778V14.931H532.721L534.926 14.826L534.821 16.8L532.616 16.695H519.176L516.971 16.8L516.866 14.826ZM530.558 9.387V6.342H521.024V9.387H530.558ZM536.605 13.545C537.004 13.062 537.403 12.411 537.739 11.739C538.747 9.702 539.86 6.111 540.322 3.717C540.427 2.961 540.511 2.289 540.553 1.659L542.653 2.016C542.401 4.032 541.897 6.447 541.141 8.757L544.417 11.067L546.244 12.201L545.068 13.986L543.388 12.684L540.448 10.626C539.818 12.159 539.062 13.566 538.18 14.721L536.605 13.545ZM552.061 18.312L552.166 16.107V2.52L552.061 0.314995L554.245 0.209995L554.14 2.415V16.212L554.245 18.417L552.061 18.312ZM543.115 6.195L545.32 6.3H547.756V2.73L547.651 0.524996L549.835 0.419996L549.73 2.625V15.792L549.835 17.997L547.651 17.892L547.756 15.687V8.106H545.425L543.22 8.211L543.115 6.195ZM566.109 11.403C565.332 11.403 564.597 11.34 563.946 11.214V14.931H568.272V11.214C567.621 11.34 566.886 11.403 566.109 11.403ZM566.109 9.597C569.553 9.597 571.233 8.085 571.233 6.258C571.233 4.431 569.553 2.898 566.109 2.898C562.665 2.898 560.985 4.431 560.985 6.258C560.985 8.085 562.665 9.597 566.109 9.597ZM557.184 14.826L559.389 14.931H561.972V10.626C560.019 9.744 559.011 8.148 559.011 6.258C559.011 3.297 561.426 1.09199 566.109 1.09199C570.792 1.09199 573.207 3.297 573.207 6.258C573.207 8.148 572.199 9.744 570.246 10.626V14.931H573.039L575.244 14.826L575.139 16.8L572.934 16.695H559.494L557.289 16.8L557.184 14.826ZM578.351 6.237L578.246 1.28099H580.661L580.556 6.237L580.178 13.209H578.729L578.351 6.237ZM577.952 15.75L577.868 14.154L579.464 14.217L581.039 14.154L580.955 15.75L581.039 17.346L579.464 17.283L577.868 17.346L577.952 15.75ZM58.7189 47.312L58.8239 45.107V31.52L58.7189 29.315L60.9029 29.21L60.7979 31.415V37.19H61.9529L64.1579 37.085L64.0529 39.101L61.8479 38.996H60.7979V45.212L60.9029 47.417L58.7189 47.312ZM51.2009 44.246C47.9039 44.246 45.9929 41.852 45.9929 37.463C45.9929 33.074 47.9039 30.659 51.2009 30.659C54.4979 30.659 56.4089 33.074 56.4089 37.463C56.4089 41.852 54.4979 44.246 51.2009 44.246ZM51.2009 42.44C53.2799 42.44 54.4979 40.739 54.4979 37.463C54.4979 34.166 53.2799 32.465 51.2009 32.465C49.1219 32.465 47.9039 34.166 47.9039 37.463C47.9039 40.739 49.1219 42.44 51.2009 42.44ZM80.4531 47.312L80.5581 45.107V38.996H77.9121V44.792L78.0171 46.997L75.8331 46.892L75.9381 44.687V31.73L75.8331 29.525L78.0171 29.42L77.9121 31.625V37.19H80.5581V31.52L80.4531 29.315L82.6371 29.21L82.5321 31.415V45.212L82.6371 47.417L80.4531 47.312ZM66.1521 41.495V38.618L66.0471 36.413L68.2521 36.518H71.0241L71.5701 36.497V32.759H68.3571L66.1521 32.864L66.0471 30.848L68.2521 30.953H71.4441L73.6491 30.848L73.5441 33.053V36.203L73.6491 38.408L71.5701 38.324H68.1261V41.789H72.0741L74.2791 41.684L74.1741 43.7L71.9691 43.595H68.2521L66.0471 43.7L66.1521 41.495ZM99.6672 47.312L99.7722 45.107V43.952H88.0962L85.8912 44.057L85.7862 42.041L88.2012 42.146H99.7722V31.52L99.6672 29.315L101.851 29.21L101.746 31.415V45.212L101.851 47.417L99.6672 47.312ZM92.0862 39.626C88.7682 39.626 86.6262 37.841 86.6262 34.838C86.6262 31.835 88.7682 30.029 92.0862 30.029C95.4042 30.029 97.5462 31.835 97.5462 34.838C97.5462 37.841 95.4042 39.626 92.0862 39.626ZM92.0862 37.82C94.2282 37.82 95.6352 36.707 95.6352 34.838C95.6352 32.948 94.2282 31.835 92.0862 31.835C89.9442 31.835 88.5372 32.948 88.5372 34.838C88.5372 36.707 89.9442 37.82 92.0862 37.82ZM111.926 41.453V36.749L111.821 34.544L114.026 34.649H117.281L119.486 34.544L119.381 36.518L117.176 36.413H113.9V41.789H117.701L119.906 41.684L119.801 43.658L117.596 43.553H114.026L111.821 43.658L111.926 41.453ZM111.821 30.869L114.026 30.974H117.281L119.486 30.869L119.381 32.885L117.176 32.78H114.131L111.926 32.885L111.821 30.869ZM126.227 47.312L126.332 45.107V31.52L126.227 29.315L128.411 29.21L128.306 31.415V45.212L128.411 47.417L126.227 47.312ZM115.811 37.925L118.016 38.03H121.922V31.73L121.817 29.525L124.001 29.42L123.896 31.625V44.792L124.001 46.997L121.817 46.892L121.922 44.687V39.836H118.121L115.916 39.941L115.811 37.925ZM132.4 41.348V33.095L132.295 30.89L134.5 30.995H139.834L142.039 30.89L141.934 33.095V41.348L142.039 43.553L139.834 43.448H134.5L132.295 43.553L132.4 41.348ZM139.96 41.642V32.801H134.374V41.642H139.96ZM144.811 47.312L144.916 45.107V31.52L144.811 29.315L146.995 29.21L146.89 31.415V37.19H148.045L150.25 37.085L150.145 39.101L147.94 38.996H146.89V45.212L146.995 47.417L144.811 47.312ZM158.224 35.405C158.896 35.111 159.505 34.838 160.114 34.502C161.815 33.578 163.096 32.696 164.293 31.52L164.377 31.436H161.143L158.938 31.541L158.833 29.525L161.038 29.63H170.53L172.735 29.525L172.63 31.541L170.425 31.436H166.939C166.498 32.003 166.015 32.507 165.49 33.011L171.286 34.229L173.428 34.565L172.903 36.602L170.866 36.056L163.621 34.544C162.361 35.447 160.954 36.245 159.358 37.001L158.224 35.405ZM156.964 37.757L159.169 37.862H172.819L175.024 37.757L174.919 39.731L172.714 39.626H166.876V41.201C170.257 41.39 172.525 42.545 172.525 44.645C172.525 46.913 169.816 48.089 165.889 48.089C161.92 48.089 159.253 46.913 159.253 44.645C159.253 42.545 161.479 41.39 164.902 41.201V39.626H159.274L157.069 39.731L156.964 37.757ZM165.889 46.262C168.619 46.262 170.509 45.758 170.509 44.645C170.509 43.532 168.619 43.007 165.889 43.007C163.117 43.007 161.269 43.532 161.269 44.645C161.269 45.758 163.117 46.262 165.889 46.262ZM196.039 47.312L196.144 45.107V31.52L196.039 29.315L198.223 29.21L198.118 31.415V37.4H199.273L201.478 37.295L201.373 39.311L199.168 39.206H198.118V45.212L198.223 47.417L196.039 47.312ZM188.458 44.729C185.14 44.729 183.544 42.86 183.544 40.13C183.544 37.4 185.14 35.51 188.458 35.51C192.007 35.51 193.393 37.4 193.393 40.13C193.393 42.86 191.797 44.729 188.458 44.729ZM188.458 42.923C190.558 42.923 191.461 41.705 191.461 40.088C191.461 38.45 190.558 37.232 188.458 37.232C186.358 37.232 185.476 38.45 185.476 40.088C185.476 41.705 186.358 42.923 188.458 42.923ZM182.578 32.381L184.783 32.486H187.471V31.94L187.366 29.735L189.55 29.63L189.445 31.835V32.486H191.923L194.128 32.381L194.023 34.355L191.818 34.25H184.888L182.683 34.355L182.578 32.381ZM216.198 47.312L216.303 45.107V31.52L216.198 29.315L218.382 29.21L218.277 31.415V37.19H219.432L221.637 37.085L221.532 39.101L219.327 38.996H218.277V45.212L218.382 47.417L216.198 47.312ZM203.787 41.033V33.116L203.682 30.911L205.866 31.016L205.761 33.221V41.369H211.977L214.182 41.264L214.077 43.238L211.872 43.133H205.887L203.682 43.238L203.787 41.033ZM225.291 34.796V34.481L225.186 32.276L227.391 32.381H236.379V31.415H227.496L225.291 31.52L225.186 29.504L227.391 29.609H236.253L238.458 29.504L238.353 31.709V31.982L238.458 34.187L236.379 34.103H227.265V35.132H236.778L238.983 35.027L238.878 37.001L236.673 36.896H227.391L225.186 37.001L225.291 34.796ZM225.396 45.8V45.548L225.291 43.343L227.496 43.448H236.232V42.461H227.601L225.396 42.566L225.291 40.634L227.496 40.739H236.148L238.353 40.634L238.248 42.839V43.049L238.353 45.254L236.232 45.17H227.412V46.136H236.778L238.983 46.031L238.878 48.005L236.673 47.9H227.496L225.291 48.005L225.396 45.8ZM222.897 37.862L225.102 37.967H238.752L240.957 37.862L240.852 39.836L238.647 39.731H225.207L223.002 39.836L222.897 37.862ZM248.196 39.374C248.721 38.912 249.267 38.387 249.729 37.82C251.178 36.035 252.543 33.704 253.236 31.751C253.509 30.995 253.719 30.344 253.824 29.714L255.924 30.176C255.504 31.814 254.853 33.473 254.034 35.027L258.36 37.064L260.376 37.883L259.41 39.773L257.541 38.765L253.047 36.686C252.06 38.219 250.926 39.584 249.687 40.676L248.196 39.374ZM252.081 45.443V42.986L251.976 40.781L254.16 40.886L254.055 43.091V45.779H262.896L265.101 45.674L264.996 47.648L262.791 47.543H254.181L251.976 47.648L252.081 45.443ZM262.602 43.406L262.707 41.201V34.691H259.221L257.016 34.796L256.911 32.78L259.116 32.885H262.707V31.31L262.602 29.105L264.786 29L264.681 31.205V41.306L264.786 43.511L262.602 43.406ZM283.706 39.962L283.811 37.757V36.266H281.165V37.862L281.27 40.067L279.086 39.962L279.191 37.757V31.52L279.086 29.315L281.27 29.21L281.165 31.415V34.46H283.811V31.31L283.706 29.105L285.89 29L285.785 31.205V37.862L285.89 40.067L283.706 39.962ZM283.496 47.795L283.601 45.59V43.07H274.109L271.904 43.175L271.799 41.159L274.004 41.264H283.664L285.68 41.159L285.575 43.364V45.695L285.68 47.9L283.496 47.795ZM269.405 37.295V35.279L269.3 33.074L271.505 33.179H274.802L277.007 33.074L276.902 35.048L274.697 34.943H271.379V37.589H275.222L277.427 37.484L277.322 39.5L275.117 39.395H271.505L269.3 39.5L269.405 37.295ZM269.3 29.819L271.505 29.924H274.802L277.007 29.819L276.902 31.835L274.697 31.73H271.61L269.405 31.835L269.3 29.819ZM303.865 47.312L303.97 45.107V38.996H301.324V44.792L301.429 46.997L299.245 46.892L299.35 44.687V31.73L299.245 29.525L301.429 29.42L301.324 31.625V37.19H303.97V31.52L303.865 29.315L306.049 29.21L305.944 31.415V45.212L306.049 47.417L303.865 47.312ZM293.554 44.729C290.866 44.729 289.375 42.965 289.375 40.235C289.375 37.505 290.866 35.72 293.554 35.72C296.263 35.72 297.754 37.505 297.754 40.235C297.754 42.965 296.263 44.729 293.554 44.729ZM293.554 42.923C295.024 42.923 295.822 41.894 295.822 40.193C295.822 38.471 295.024 37.442 293.554 37.442C292.084 37.442 291.307 38.471 291.307 40.193C291.307 41.894 292.084 42.923 293.554 42.923ZM288.619 32.486L290.824 32.591H292.567V32.15L292.462 29.945L294.646 29.84L294.541 32.045V32.591H296.179L298.384 32.486L298.279 34.46L296.074 34.355H290.929L288.724 34.46L288.619 32.486ZM313.918 42.419C314.569 42.041 315.115 41.663 315.598 41.243C318.265 38.912 319.735 36.308 320.428 32.801H316.795L314.59 32.906L314.485 30.89L316.69 30.995H320.764L322.99 30.89C322.738 32.444 322.423 33.872 322.003 35.195H325.174V31.73L325.069 29.525L327.253 29.42L327.148 31.625V44.792L327.253 46.997L325.069 46.892L325.174 44.687V37.001H321.331C320.176 39.668 318.37 41.957 315.388 44.162L313.918 42.419ZM329.479 47.312L329.584 45.107V31.52L329.479 29.315L331.663 29.21L331.558 31.415V45.212L331.663 47.417L329.479 47.312ZM348.694 39.542L348.799 37.337V31.31L348.694 29.105L350.878 29L350.773 31.205V37.442L350.878 39.647L348.694 39.542ZM338.152 45.695V42.944L338.047 40.739L340.252 40.844H348.673L350.878 40.739L350.773 42.944V45.695L350.878 47.9L348.673 47.795H340.252L338.047 47.9L338.152 45.695ZM348.799 45.989V42.65H340.126V45.989H348.799ZM340.441 39.29C337.564 39.29 335.233 37.736 335.233 34.46C335.233 31.184 337.564 29.609 340.441 29.609C343.318 29.609 345.649 31.184 345.649 34.46C345.649 37.736 343.318 39.29 340.441 39.29ZM340.441 37.484C342.1 37.484 343.738 36.623 343.738 34.46C343.738 32.276 342.1 31.415 340.441 31.415C338.782 31.415 337.144 32.276 337.144 34.46C337.144 36.623 338.782 37.484 340.441 37.484ZM357.261 45.8V45.233L357.156 43.028L359.361 43.133H368.139V41.831H359.466L357.261 41.936L357.156 40.004L359.361 40.109H368.013L370.218 40.004L370.113 42.209V42.734L370.218 44.939L368.139 44.855H359.235V46.178H368.643L370.848 46.073L370.743 48.005L368.538 47.9H359.361L357.156 48.005L357.261 45.8ZM363.687 36.014C359.109 36.014 356.799 34.712 356.799 32.717C356.799 30.701 359.109 29.399 363.687 29.399C368.265 29.399 370.575 30.701 370.575 32.717C370.575 34.712 368.265 36.014 363.687 36.014ZM363.687 34.208C367.026 34.208 368.601 33.599 368.601 32.717C368.601 31.835 367.026 31.205 363.687 31.205C360.348 31.205 358.773 31.835 358.773 32.717C358.773 33.599 360.348 34.208 363.687 34.208ZM354.762 36.917L356.967 37.022H370.617L372.822 36.917L372.717 38.891L370.512 38.786H357.072L354.867 38.891L354.762 36.917ZM394.677 47.312L394.782 45.107V31.52L394.677 29.315L396.861 29.21L396.756 31.415V45.212L396.861 47.417L394.677 47.312ZM380.376 42.545C380.88 41.957 381.384 41.264 381.783 40.634C383.253 38.324 384.618 35.195 385.311 32.507C385.5 31.772 385.584 31.184 385.668 30.554L387.768 31.016C387.369 33.074 386.739 35.153 385.941 37.064L390.855 40.382L392.703 41.495L391.464 43.196L389.763 41.936L385.143 38.849C384.219 40.739 383.127 42.419 381.951 43.721L380.376 42.545ZM413.996 39.542L414.101 37.337V31.31L413.996 29.105L416.18 29L416.075 31.205V34.04H417.23L419.435 33.935L419.33 35.951L417.125 35.846H416.075V37.442L416.18 39.647L413.996 39.542ZM413.996 47.795L414.101 45.59V42.65H405.869L403.664 42.755L403.559 40.739L405.764 40.844H414.164L416.18 40.739L416.075 42.944V45.695L416.18 47.9L413.996 47.795ZM400.22 39.059C400.745 38.597 401.291 38.072 401.753 37.505C403.202 35.741 404.357 33.83 405.05 32.066L405.092 31.94H403.37L401.165 32.045L401.06 30.029L403.265 30.134H409.565L411.77 30.029L411.665 32.045L409.46 31.94H407.318C406.94 32.969 406.457 34.019 405.869 35.048L410.363 36.665L412.442 37.316L411.644 39.29L409.691 38.429L404.861 36.707C403.937 38.072 402.887 39.332 401.711 40.361L400.22 39.059ZM426.679 39.332C423.361 39.332 421.765 38.072 421.765 36.392C421.765 34.712 423.361 33.431 426.679 33.431C430.018 33.431 431.614 34.712 431.614 36.392C431.614 38.072 430.018 39.332 426.679 39.332ZM426.679 37.526C428.779 37.526 429.682 37.001 429.682 36.35C429.682 35.678 428.779 35.153 426.679 35.153C424.579 35.153 423.697 35.678 423.697 36.35C423.697 37.001 424.579 37.526 426.679 37.526ZM420.904 30.806L423.109 30.911H425.671L425.587 29L427.771 28.895L427.666 30.911H430.039L432.244 30.806L432.139 32.78L429.934 32.675H423.214L421.009 32.78L420.904 30.806ZM434.155 39.122L434.26 36.917V31.31L434.155 29.105L436.339 29L436.234 31.205V34.04H437.389L439.594 33.935L439.489 35.951L437.284 35.846H436.234V37.022L436.339 39.227L434.155 39.122ZM423.949 45.716V45.275L423.844 43.07L426.049 43.175H433.714L434.26 43.154V42.125H426.154L423.949 42.23L423.844 40.298L426.049 40.403H434.134L436.339 40.298L436.234 42.503V42.776L436.339 44.981L434.26 44.897H425.923V46.094H434.764L436.969 45.989L436.864 48.005L434.659 47.9H426.049L423.844 48.005L423.949 45.716ZM454.142 47.417L454.247 45.212V41.81H448.619L446.414 41.915L446.309 39.941L448.514 40.046H462.164L464.369 39.941L464.264 41.915L462.059 41.81H456.221V45.317L456.326 47.522L454.142 47.417ZM447.149 36.644C447.821 36.329 448.472 35.93 449.039 35.489C450.698 34.229 452.756 32.381 453.848 30.974C454.331 30.344 454.709 29.777 455.066 29.189L456.851 30.302C456.137 31.331 455.381 32.276 454.583 33.179L461.177 34.922L463.298 35.363L462.668 37.4L460.652 36.749L453.008 34.754C451.601 36.056 450.047 37.211 448.346 38.219L447.149 36.644ZM486.014 39.122L486.119 36.917V31.31L486.014 29.105L488.198 29L488.093 31.205V37.022L488.198 39.227L486.014 39.122ZM477.761 38.933C474.884 38.933 472.553 37.379 472.553 34.292C472.553 31.205 474.884 29.63 477.761 29.63C480.638 29.63 482.969 31.205 482.969 34.292C482.969 37.379 480.638 38.933 477.761 38.933ZM477.761 37.127C479.42 37.127 481.058 36.266 481.058 34.292C481.058 32.297 479.42 31.436 477.761 31.436C476.102 31.436 474.464 32.297 474.464 34.292C474.464 36.266 476.102 37.127 477.761 37.127ZM473.225 46.724C473.75 46.409 474.128 46.073 474.548 45.632C475.43 44.645 476.732 42.629 477.131 41.726C477.425 41.054 477.593 40.634 477.74 40.025L479.735 40.781C479.399 41.663 479 42.566 478.517 43.427L479.756 44.477L481.478 45.8L480.071 47.354L478.517 45.926L477.488 45.065C476.69 46.22 475.745 47.291 474.653 48.215L473.225 46.724ZM481.205 46.724C481.667 46.409 482.003 46.073 482.36 45.632C483.137 44.645 484.271 42.629 484.628 41.726C484.88 41.054 485.027 40.634 485.153 40.025L487.148 40.781C486.854 41.642 486.518 42.503 486.098 43.343L488.156 45.107L489.878 46.43L488.471 47.984L486.917 46.556L485.153 45.065C484.418 46.22 483.578 47.291 482.633 48.215L481.205 46.724ZM506.383 47.312L506.488 45.107V38.366H503.212C502.96 42.188 501.091 44.246 498.025 44.246C494.728 44.246 492.817 41.852 492.817 37.463C492.817 33.074 494.728 30.659 498.025 30.659C501.091 30.659 502.96 32.738 503.212 36.56H506.488V31.52L506.383 29.315L508.567 29.21L508.462 31.415V45.212L508.567 47.417L506.383 47.312ZM498.025 42.44C500.104 42.44 501.322 40.739 501.322 37.463C501.322 34.166 500.104 32.465 498.025 32.465C495.946 32.465 494.728 34.166 494.728 37.463C494.728 40.739 495.946 42.44 498.025 42.44ZM521.166 40.403C520.389 40.403 519.654 40.34 519.003 40.214V43.931H523.329V40.214C522.678 40.34 521.943 40.403 521.166 40.403ZM521.166 38.597C524.61 38.597 526.29 37.085 526.29 35.258C526.29 33.431 524.61 31.898 521.166 31.898C517.722 31.898 516.042 33.431 516.042 35.258C516.042 37.085 517.722 38.597 521.166 38.597ZM512.241 43.826L514.446 43.931H517.029V39.626C515.076 38.744 514.068 37.148 514.068 35.258C514.068 32.297 516.483 30.092 521.166 30.092C525.849 30.092 528.264 32.297 528.264 35.258C528.264 37.148 527.256 38.744 525.303 39.626V43.931H528.096L530.301 43.826L530.196 45.8L527.991 45.695H514.551L512.346 45.8L512.241 43.826ZM533.009 44.75L532.925 43.154L534.521 43.217L536.096 43.154L536.012 44.75L536.096 46.346L534.521 46.283L532.925 46.346L533.009 44.75Z" fill="white"/>
</svg>
