<svg width="575" height="168" viewBox="0 0 575 168" fill="none" xmlns="http://www.w3.org/2000/svg">
<path d="M527.663 112.239C524.885 79.7272 523.905 47.5423 525.212 13.3968H573.245C574.552 47.5423 573.735 79.7272 570.957 112.239H527.663ZM549.228 167.95C533.544 167.95 524.395 158.638 524.395 144.097C524.395 129.72 533.544 120.081 549.228 120.081C564.912 120.081 574.061 129.884 574.061 144.097C574.061 158.474 564.912 167.95 549.228 167.95Z" fill="white"/>
<path d="M466.346 157.657C468.306 130.7 463.732 125.636 441.349 126.943L440.042 157.657H396.585C392.01 109.135 391.03 61.9193 393.971 13.3968H441.84C442.656 38.72 442.82 63.8798 442.33 88.8763C456.053 86.2623 462.425 78.9104 463.569 50.6464H511.764C513.888 75.9696 509.314 94.431 491.506 103.09C514.868 109.462 521.567 130.7 510.457 157.657H466.346Z" fill="#CAEF13"/>
<path d="M264.276 157.657C259.701 121.715 258.721 86.589 261.662 50.6464H309.531L309.694 61.1025C318.353 53.097 330.606 48.3592 344.003 48.3592C389.258 48.3592 386.808 107.664 381.253 157.657H336.325C337.958 105.05 335.018 95.9014 326.849 94.4311C320.641 93.2874 315.249 94.7578 309.858 98.0253C309.531 117.794 308.877 137.562 307.734 157.657H264.276Z" fill="#CAEF13"/>
<path d="M203.6 157.657C200.986 121.551 200.332 86.7524 201.639 50.6464H249.672C250.979 86.7524 250.325 121.551 247.711 157.657H203.6ZM225.656 47.0521C208.991 47.0521 199.189 37.9031 199.189 23.5261C199.189 9.47578 208.991 0 225.656 0C242.32 0 252.122 9.63916 252.122 23.5261C252.122 37.7397 242.32 47.0521 225.656 47.0521Z" fill="#CAEF13"/>
<path d="M144.052 157.657C139.151 108.808 138.661 62.2461 141.111 13.3968H189.797C192.248 62.2461 191.758 108.808 186.856 157.657H144.052Z" fill="#CAEF13"/>
<path d="M66.9962 158.474H48.208H5.73036C-0.804663 110.115 -1.29479 66.8206 1.97272 18.4614C17.9835 17.6446 32.1972 17.3178 48.208 17.3178H59.6443C106.696 18.6248 129.406 31.8582 129.406 61.756C129.406 71.3951 126.628 80.5441 117.316 87.7327C128.099 93.9409 133.98 103.09 133.98 117.794C133.98 147.201 109.147 158.474 66.9962 158.474ZM47.7179 73.1922C52.129 73.519 56.5401 73.519 60.9513 73.519C71.8974 73.3556 80.5563 71.8852 80.5563 65.1868C80.5563 58.3251 71.8974 57.5082 61.4414 57.3448C57.0303 57.3448 52.2924 57.5082 47.8812 57.8349C47.5545 63.063 47.5545 68.1276 47.7179 73.1922ZM48.5347 103.58C48.208 109.298 48.208 115.18 48.5347 121.061C53.1092 121.388 57.8471 121.388 62.2583 121.388C74.3481 121.225 83.1703 119.918 83.1703 112.076C83.1703 104.724 74.3481 103.58 62.7484 103.58H51.6389H48.5347Z" fill="#CAEF13"/>
<path d="M562.706 141.972C564.746 143.119 564.746 146.056 562.706 147.202L544.438 157.472C542.439 158.596 539.968 157.151 539.968 154.856L539.968 134.318C539.968 132.024 542.439 130.579 544.438 131.703L562.706 141.972Z" fill="#191919"/>
</svg>
