<svg width="217" height="19" viewBox="0 0 217 19" fill="none" xmlns="http://www.w3.org/2000/svg">
<path d="M13.986 18.102L14.091 15.897V2.31L13.986 0.105003L16.17 3.45707e-06L16.065 2.205V7.98H17.22L19.425 7.875L19.32 9.891L17.115 9.786H16.065V16.002L16.17 18.207L13.986 18.102ZM-2.44062e-05 13.146C0.650976 12.852 1.19698 12.558 1.67998 12.243C5.22898 9.933 7.11898 7.665 8.58898 3.591H3.50698L1.30198 3.696L1.19698 1.68L3.40198 1.785H9.15598L11.382 1.68C9.78598 7.98 6.67798 11.865 1.25998 14.952L-2.44062e-05 13.146ZM20.6842 14.616L22.8892 14.721H28.6222V11.676H24.9682L22.7632 11.781L22.8682 9.576V7.581L22.7632 5.376L24.9682 5.481H34.3762V2.835H25.0732L22.8682 2.94L22.7632 0.924004L24.9682 1.029H34.2502L36.4552 0.924004L36.3502 3.129V5.082L36.4552 7.287L34.3762 7.203H24.8422V9.87H34.7752L36.9802 9.765L36.8752 11.781L34.6702 11.676H30.5962V14.721H36.5392L38.7442 14.616L38.6392 16.59L36.4342 16.485H22.9942L20.7892 16.59L20.6842 14.616ZM40.8433 14.616L43.0483 14.721H48.7813V11.676H45.1273L42.9223 11.781L43.0273 9.576V7.581L42.9223 5.376L45.1273 5.481H54.5353V2.835H45.2323L43.0273 2.94L42.9223 0.924004L45.1273 1.029H54.4093L56.6143 0.924004L56.5093 3.129V5.082L56.6143 7.287L54.5353 7.203H45.0013V9.87H54.9343L57.1393 9.765L57.0343 11.781L54.8293 11.676H50.7553V14.721H56.6983L58.9033 14.616L58.7983 16.59L56.5933 16.485H43.1533L40.9483 16.59L40.8433 14.616ZM68.9566 16.59V16.128L68.8516 13.923L71.0566 14.028H79.8346V12.831H71.1616L68.9566 12.936L68.8516 11.004L71.0566 11.109H79.7086L81.9136 11.004L81.8086 13.209V13.629L81.9136 15.834L79.8346 15.75H70.9306V16.968H80.3386L82.5436 16.863L82.4386 18.795L80.2336 18.69H71.0566L68.8516 18.795L68.9566 16.59ZM66.4576 7.917L68.6626 8.022H82.3126L84.5176 7.917L84.4126 9.891L82.2076 9.786H68.7676L66.5626 9.891L66.4576 7.917ZM68.1376 4.977L70.3426 5.082H70.9726L70.8676 2.919L73.0516 2.814L72.9466 5.019V5.082H77.8186L77.7136 2.919L79.8976 2.814L79.7926 5.019V5.082H80.4226L82.6276 4.977L82.5226 6.993L80.1076 6.888H70.4476L68.2426 6.993L68.1376 4.977ZM68.3476 0.294003L70.5526 0.399003H80.2126L82.4176 0.294003L82.3126 2.31L80.1076 2.205H70.6576L68.4526 2.31L68.3476 0.294003ZM87.3518 12.285V9.408L87.2468 7.203L89.4518 7.308H92.2238L92.7698 7.287V3.549H89.5568L87.3518 3.654L87.2468 1.638L89.4518 1.743H92.6438L94.8488 1.638L94.7438 3.843V6.09H97.3478V2.52L97.2428 0.315004L99.4268 0.210005L99.3218 2.415V15.582L99.4268 17.787L97.2428 17.682L97.3478 15.477V7.896H94.7858L94.8488 9.198L92.7698 9.114H89.3258V12.579H93.2738L95.4788 12.474L95.3738 14.49L93.1688 14.385H89.4518L87.2468 14.49L87.3518 12.285ZM101.653 18.102L101.758 15.897V2.31L101.653 0.105003L103.837 3.45707e-06L103.732 2.205V16.002L103.837 18.207L101.653 18.102ZM121.077 18.102L121.182 15.897V2.31L121.077 0.105003L123.261 3.45707e-06L123.156 2.205V16.002L123.261 18.207L121.077 18.102ZM112.719 15.036C109.422 15.036 107.511 12.642 107.511 8.253C107.511 3.864 109.422 1.449 112.719 1.449C116.016 1.449 117.927 3.864 117.927 8.253C117.927 12.642 116.016 15.036 112.719 15.036ZM112.719 13.23C114.798 13.23 116.016 11.529 116.016 8.253C116.016 4.956 114.798 3.255 112.719 3.255C110.64 3.255 109.422 4.956 109.422 8.253C109.422 11.529 110.64 13.23 112.719 13.23ZM147.426 18.102L147.531 15.897V9.786H144.885V15.582L144.99 17.787L142.806 17.682L142.911 15.477V2.52L142.806 0.315004L144.99 0.210005L144.885 2.415V7.98H147.531V2.31L147.426 0.105003L149.61 3.45707e-06L149.505 2.205V16.002L149.61 18.207L147.426 18.102ZM137.115 15.519C134.427 15.519 132.936 13.755 132.936 11.025C132.936 8.295 134.427 6.51 137.115 6.51C139.824 6.51 141.315 8.295 141.315 11.025C141.315 13.755 139.824 15.519 137.115 15.519ZM137.115 13.713C138.585 13.713 139.383 12.684 139.383 10.983C139.383 9.261 138.585 8.232 137.115 8.232C135.645 8.232 134.868 9.261 134.868 10.983C134.868 12.684 135.645 13.713 137.115 13.713ZM132.18 3.276L134.385 3.381H136.128V2.94L136.023 0.735004L138.207 0.630004L138.102 2.835V3.381H139.74L141.945 3.276L141.84 5.25L139.635 5.145H134.49L132.285 5.25L132.18 3.276ZM160.382 18.207L160.487 16.002V12.6H154.859L152.654 12.705L152.549 10.731L154.754 10.836H168.404L170.609 10.731L170.504 12.705L168.299 12.6H162.461V16.107L162.566 18.312L160.382 18.207ZM153.389 7.749C154.061 7.434 154.67 7.077 155.279 6.699C156.938 5.649 158.681 4.221 159.878 2.814L160.193 2.436H156.518L154.313 2.541L154.208 0.525004L156.413 0.630004H166.325L168.53 0.525004L168.425 2.541L166.22 2.436H162.671C162.125 3.213 161.516 3.948 160.886 4.62L167.417 6.342L169.538 6.783L168.908 8.82L166.892 8.169L159.227 6.174C157.799 7.371 156.224 8.4 154.586 9.324L153.389 7.749ZM172.289 13.335C172.688 12.852 173.087 12.201 173.423 11.529C174.431 9.492 175.544 5.901 176.006 3.507C176.111 2.751 176.195 2.079 176.237 1.449L178.337 1.806C178.085 3.822 177.581 6.237 176.825 8.547L180.101 10.857L181.928 11.991L180.752 13.776L179.072 12.474L176.132 10.416C175.502 11.949 174.746 13.356 173.864 14.511L172.289 13.335ZM187.745 18.102L187.85 15.897V2.31L187.745 0.105003L189.929 3.45707e-06L189.824 2.205V16.002L189.929 18.207L187.745 18.102ZM178.799 5.985L181.004 6.09H183.44V2.52L183.335 0.315004L185.519 0.210005L185.414 2.415V15.582L185.519 17.787L183.335 17.682L183.44 15.477V7.896H181.109L178.904 8.001L178.799 5.985ZM201.793 11.193C201.016 11.193 200.281 11.13 199.63 11.004V14.721H203.956V11.004C203.305 11.13 202.57 11.193 201.793 11.193ZM201.793 9.387C205.237 9.387 206.917 7.875 206.917 6.048C206.917 4.221 205.237 2.688 201.793 2.688C198.349 2.688 196.669 4.221 196.669 6.048C196.669 7.875 198.349 9.387 201.793 9.387ZM192.868 14.616L195.073 14.721H197.656V10.416C195.703 9.534 194.695 7.938 194.695 6.048C194.695 3.087 197.11 0.882003 201.793 0.882003C206.476 0.882003 208.891 3.087 208.891 6.048C208.891 7.938 207.883 9.534 205.93 10.416V14.721H208.723L210.928 14.616L210.823 16.59L208.618 16.485H195.178L192.973 16.59L192.868 14.616ZM213.636 15.54L213.552 13.944L215.148 14.007L216.723 13.944L216.639 15.54L216.723 17.136L215.148 17.073L213.552 17.136L213.636 15.54Z" fill="white"/>
</svg>
